#!OML:ASF E:\Steps\Project 1\Capture day 1\Session 2\Subject.ASF
:FULLY-SPECIFIED
:DEGREES
327
root 7.18747 16.8217 13.2196 -141.345 0.515499 182.305
lowerback -8.58165 0.20783 -9.2469
upperback 3.43167 1.62267 -1.39328
thorax 8.32193 0.384774 3.96711
lowerneck -4.57532 1.31657 -0.596518
upperneck 7.01338 1.10519 6.36668
head 3.02928 0.669584 2.23195
rclavicle 2.94201e-014 4.77083e-015
rhumerus -18.2559 0.195314 -82.3017
rradius 65.0961
rwrist -11.6181
rhand -13.1362 -404.213
rfingers 7.12502
rthumb 12.9619 -433.791
lclavicle 2.94201e-014 4.77083e-015
lhumerus 1.31789 -15.8517 51.7252
lradius 38.5171
lwrist 7.90271
lhand -25.7582 -15.7189
lfingers 7.12502
lthumb 0.779324 14.2594
rfemur -27.3128 4.68652 -8.298
rtibia 34.0169
rfoot 14.5491 -19.5513
rtoes -20.967
lfemur -81.4521 13.0082 -8.05001
ltibia 49.3118
lfoot -5.13963 5.13329
ltoes -40.3133
328
root 7.0893 16.9161 13.134 -141.374 0.372268 182.196
lowerback -8.62279 0.171452 -9.17015
upperback 3.31431 1.57376 -1.51164
thorax 8.22833 0.377751 3.79064
lowerneck -4.12067 1.27848 -0.373496
upperneck 7.52982 1.00776 6.17525
head 3.12266 0.613527 2.12604
rclavicle 3.4191e-014 8.18993e-014
rhumerus -19.3956 -0.221983 -82.4935
rradius 65.3647
rwrist -11.3782
rhand -12.9355 -406.403
rfingers 7.12502
rthumb 13.1553 -435.968
lclavicle 3.4191e-014 8.18993e-014
lhumerus 0.92721 -16.982 52.0625
lradius 38.6203
lwrist 7.7735
lhand -25.8012 -15.0712
lfingers 7.12502
lthumb 0.737726 14.9073
rfemur -28.4992 4.03192 -7.92424
rtibia 36.7642
rfoot 13.8371 -20.2005
rtoes -19.7774
lfemur -80.6178 12.4115 -8.49478
ltibia 48.5183
lfoot -5.16273 4.81789
ltoes -39.6022
329
root 6.9936 17.0043 13.0558 -141.341 0.186031 182.064
lowerback -8.66888 0.145164 -9.16002
upperback 3.4209 1.56078 -1.5589
thorax 8.37593 0.366402 3.73423
lowerneck -4.30452 1.1621 -0.167467
upperneck 7.77493 0.835324 5.98696
head 3.248 0.534527 2.0268
rclavicle 1.03368e-014 3.89618e-014
rhumerus -20.0124 -0.668829 -82.4755
rradius 65.4833
rwrist -11.016
rhand -6.42315 -419.629
rfingers 7.12502
rthumb 19.4255 -448.679
lclavicle 1.03368e-014 3.89618e-014
lhumerus 1.24809 -17.6226 52.5769
lradius 38.2396
lwrist 7.4046
lhand -25.6841 -14.8295
lfingers 7.12502
lthumb 0.850807 15.1485
rfemur -29.8389 3.46771 -7.56973
rtibia 39.6981
rfoot 12.5985 -20.6492
rtoes -16.8777
lfemur -79.9227 11.767 -8.92651
ltibia 47.8264
lfoot -5.24238 4.48769
ltoes -38.0907
330
root 6.90172 17.0854 12.9767 -141.319 0.00574934 181.98
lowerback -8.76292 0.0866003 -9.0739
upperback 3.46479 1.48616 -1.55303
thorax 8.48977 0.328477 3.68312
lowerneck -4.19047 1.10188 -0.334347
upperneck 8.05583 0.725564 6.1418
head 3.32782 0.477944 2.10833
rclavicle 9.54166e-015 -3.02153e-014
rhumerus -20.7154 -0.941765 -82.3902
rradius 65.6061
rwrist -10.7214
rhand -6.7541 -417.623
rfingers 7.12502
rthumb 19.1073 -446.705
lclavicle 9.54166e-015 -3.02153e-014
lhumerus 1.09868 -18.163 53.2597
lradius 38.0501
lwrist 6.90481
lhand -25.7017 -15.0316
lfingers 7.12502
lthumb 0.833867 14.9465
rfemur -31.1649 3.1405 -7.14631
rtibia 42.5755
rfoot 11.3072 -20.8165
rtoes -15.6917
lfemur -79.297 11.195 -9.32869
ltibia 47.3104
lfoot -5.39547 4.17509
ltoes -37.7286
331
root 6.80533 17.1607 12.8942 -141.28 -0.0840877 181.918
lowerback -8.89095 -0.0869636 -8.91986
upperback 3.36524 1.22968 -1.48229
thorax 8.48772 0.209894 3.63467
lowerneck -3.73073 1.22893 -0.900934
upperneck 8.29929 0.892091 6.36365
head 3.31762 0.540153 2.28996
rclavicle 2.38542e-015 -3.18055e-014
rhumerus -21.5091 -0.556798 -82.295
rradius 65.3236
rwrist -10.2561
rhand -6.83418 -416.25
rfingers 7.12502
rthumb 19.0303 -445.339
lclavicle 2.38542e-015 -3.18055e-014
lhumerus 0.214532 -18.4388 54.1416
lradius 38.0501
lwrist 6.42165
lhand -25.8492 -15.5221
lfingers 7.12502
lthumb 0.691423 14.4566
rfemur -32.5205 2.77771 -6.76099
rtibia 45.323
rfoot 10.205 -20.7637
rtoes -15.2352
lfemur -78.6864 10.7144 -9.77744
ltibia 46.7551
lfoot -5.46921 3.95345
ltoes -37.8565
332
root 6.70596 17.2319 12.8082 -141.396 -0.114579 181.825
lowerback -8.96355 -0.153621 -8.76883
upperback 3.57737 1.15341 -1.50485
thorax 8.77505 0.166695 3.51572
lowerneck -4.11604 1.218 -0.962786
upperneck 8.3468 0.895528 6.28641
head 3.40787 0.54898 2.28289
rclavicle -7.15625e-015 -3.26007e-014
rhumerus -21.8652 -0.448094 -82.2515
rradius 64.7034
rwrist -9.12407
rhand -9.25685 -410.694
rfingers 7.12502
rthumb 16.6992 -439.995
lclavicle -7.15625e-015 -3.26007e-014
lhumerus 0.0398277 -18.7796 54.7452
lradius 38.021
lwrist 6.31194
lhand -25.6539 -16.0444
lfingers 7.12502
lthumb 0.880054 13.9336
rfemur -33.6616 2.41863 -6.41382
rtibia 47.8105
rfoot 9.26362 -20.6072
rtoes -15.2099
lfemur -77.8178 10.1737 -10.2003
ltibia 46.043
lfoot -5.48062 3.82096
ltoes -37.7647
333
root 6.61202 17.3 12.7236 -141.542 -0.0638202 181.608
lowerback -9.32843 -0.223651 -8.98018
upperback 3.66073 1.13089 -1.45668
thorax 9.08343 0.126644 3.68699
lowerneck -3.73534 1.1393 -0.909486
upperneck 8.47122 0.801362 6.01721
head 3.38012 0.488496 2.17446
rclavicle 1.74931e-014 4.05521e-014
rhumerus -22.824 -0.450367 -82.0051
rradius 65.6144
rwrist -9.96983
rhand -7.83559 -414.228
rfingers 7.12502
rthumb 18.067 -443.408
lclavicle 1.74931e-014 4.05521e-014
lhumerus -0.585972 -19.4064 55.6585
lradius 38.1027
lwrist 6.20293
lhand -25.3153 -16.0999
lfingers 7.12502
lthumb 1.20703 13.8765
rfemur -34.8615 2.23578 -6.2105
rtibia 50.3886
rfoot 8.38053 -20.2274
rtoes -16.7451
lfemur -76.9495 9.60309 -10.7601
ltibia 45.4366
lfoot -5.54255 3.63533
ltoes -37.8461
